<?xml version="1.0" encoding="utf-8"?>
<!-- Generator: Adobe Illustrator 22.1.0, SVG Export Plug-In . SVG Version: 6.00 Build 0)  -->
<svg version="1.1" id="Laag_1" xmlns="http://www.w3.org/2000/svg" xmlns:xlink="http://www.w3.org/1999/xlink" x="0px" y="0px"
	 viewBox="0 0 157 112" style="enable-background:new 0 0 157 112;" xml:space="preserve">
<style type="text/css">
	.st0{fill:#29D3B8;}
</style>
<g>
	<path class="st0" d="M134,48L134,48c-4.4,0-8-3.6-8-8v0c0-4.4,3.6-8,8-8h0c4.4,0,8,3.6,8,8v0C142,44.4,138.4,48,134,48z"/>
	<path class="st0" d="M149,80h-8c-4.4,0-8-3.6-8-8v0c0-4.4,3.6-8,8-8h8c4.4,0,8,3.6,8,8v0C157,76.4,153.4,80,149,80z"/>
	<path class="st0" d="M111.4,64.1c0,0,0-0.1,0-0.1H110h-10c-4.4,0-8-3.6-8-8c0-4.4,3.6-8,8-8h7c4.4,0,8-3.6,8-8c0-4.4-3.6-8-8-8
		h-0.4H86h-4c-4.4,0-8-3.6-8-8c0-4.4,3.6-8,8-8h4c4.4,0,8-3.6,8-8c0-4.4-3.6-8-8-8H58c-0.2,0-1.6,0-2,0C25.1,0,0,25.1,0,56
		c0,30.9,25.1,56,56,56c1.2,0,4.5,0,5,0h34c4.4,0,8-3.6,8-8c0-4.3-3.5-7.9-7.8-8c0,0,0,0,0,0H95h-7c-4.4,0-8-3.6-8-8
		c0-4.4,3.6-8,8-8h18.6h3.4c4.4,0,8-3.6,8-8C118,68.1,115.1,64.8,111.4,64.1z M70,64c-4.4,0-8-3.6-8-8s3.6-8,8-8s8,3.6,8,8
		S74.4,64,70,64z"/>
</g>
</svg>
