<?xml version="1.0" encoding="utf-8"?>
<!-- Generator: Adobe Illustrator 22.1.0, SVG Export Plug-In . SVG Version: 6.00 Build 0)  -->
<svg version="1.1" id="Layer_1" xmlns="http://www.w3.org/2000/svg" xmlns:xlink="http://www.w3.org/1999/xlink" x="0px" y="0px"
	 viewBox="0 0 538.3 113.8" style="enable-background:new 0 0 538.3 113.8;" xml:space="preserve">
<style type="text/css">
	.st0{fill:#29D3B8;}
</style>
<g>
	<g>
		<path class="st0" d="M291.1,25.4h8.3c2.6,0,4.7,2.1,4.7,4.7v0.5c3.3-4,7.6-6.1,13.3-6.1c0.7,0,1.3,0,2.1,0.1
			c2.4,0.2,4.2,2.2,4.2,4.7v8.2c0,2.9-2.6,5.1-5.4,4.6c-1.2-0.2-2.4-0.3-3.6-0.3c-2.7,0-5.8,0.8-8.4,2.3c-1.4,0.8-2.2,2.4-2.2,4
			v31.1c0,2.6-2.1,4.7-4.7,4.7h-8.3c-2.6,0-4.7-2.1-4.7-4.7v-49C286.4,27.5,288.5,25.4,291.1,25.4z"/>
		<path class="st0" d="M330.5,10.5C330.5,4.7,335.2,0,341,0s10.5,4.7,10.5,10.5c0,2.6-0.8,4.9-2.3,6.7h-16.3
			C331.3,15.4,330.5,13.1,330.5,10.5z M332.1,25.4h17.6v53.7c0,2.6-2.1,4.7-4.7,4.7h-8.3c-2.6,0-4.7-2.1-4.7-4.7V25.4H332.1z"/>
		<path class="st0" d="M368.3,25.4h9.5c1.9,0,3.5,1.6,3.5,3.5l0,0c3.4-2.8,8.1-4.4,12.8-4.4c17.3,0,28.2,14.1,28.2,30.1
			s-11,30.1-28.2,30.1c-4.8,0-9.5-1.5-12.8-4.3v14.9c0,2.6-2.1,4.7-4.7,4.7h-8.3c-2.6,0-4.7-2.1-4.7-4.7V30.1
			C363.7,27.5,365.7,25.4,368.3,25.4z M381.3,47.2v14.9c0,1.3,0.5,2.5,1.5,3.4c2.2,2,5,3.1,8.4,3.1c8.4,0,13.4-6.3,13.4-14
			s-5-14-13.4-14c-3.6,0-6.5,1.2-8.7,3.5C381.7,44.9,381.3,46.1,381.3,47.2z"/>
		<path class="st0" d="M430.7,25.4h5.5v-5.9c0-1.8,1-3.4,2.6-4.2l8.3-4.1c3.1-1.5,6.7,0.7,6.7,4.2v10h12.5c3,0,5.3,2.9,4.5,5.8
			l-1.5,6.1c-0.5,2.1-2.4,3.5-4.5,3.5h-10.9v20c0,4.9,2,6.9,6.8,6.9h4.9c2.6,0,4.7,2.1,4.7,4.7v6.8c0,2.6-2.1,4.7-4.7,4.7h-11.4
			c-11,0-17.9-6.9-17.9-18v-25h-3.9c-2.1,0-4-1.5-4.5-3.5l-1.5-6.1C425.4,28.3,427.6,25.4,430.7,25.4z"/>
		<path class="st0" d="M477.7,54.6c0-16.6,13.5-30.1,30.3-30.1s30.3,13.5,30.3,30.1S524.8,84.7,508,84.7S477.7,71.2,477.7,54.6z
			 M520.6,54.6c0-8.1-5.4-13.7-12.6-13.7c-7.2,0-12.6,5.6-12.6,13.7s5.4,13.7,12.6,13.7C515.2,68.3,520.6,62.7,520.6,54.6z"/>
		<path class="st0" d="M267.6,25.4h-11.5c-2.1,0-3.8,1.7-3.8,3.8l0,0c-3.6-3-8.7-4.8-13.8-4.8c-19,0-29.7,14.8-29.7,30.2
			c0,15.3,10.7,30.2,29.7,30.2c5.2,0,10.3-1.8,14-4.8c0,0.4,0,0.7,0,1.1l0,0c0,11.3-5.9,16-15.5,16c-4.7,0-7.2-0.7-10.1-2.9
			c-2.5-1.9-6-1.1-7.5,1.7l-3,5.8c-1.2,2.3-0.5,5,1.6,6.5c5.1,3.4,11.8,5.6,19.8,5.6c23.4,0,33.5-15.9,33.5-33.6l0,0V29.3
			C271.4,27.1,269.7,25.4,267.6,25.4z M252.4,62.2c-2.8,3.4-6.7,5.3-11.3,5.3c-8.4,0-13.1-6.4-13.1-12.8s4.7-12.8,13.1-12.8
			c4.7,0,8.6,1.9,11.3,5.3V62.2z"/>
	</g>
	<g>
		<path class="st0" d="M134,48.8L134,48.8c-4.4,0-8-3.6-8-8l0,0c0-4.4,3.6-8,8-8l0,0c4.4,0,8,3.6,8,8l0,0
			C142,45.2,138.4,48.8,134,48.8z"/>
		<path class="st0" d="M149,80.8h-8c-4.4,0-8-3.6-8-8l0,0c0-4.4,3.6-8,8-8h8c4.4,0,8,3.6,8,8l0,0C157,77.2,153.4,80.8,149,80.8z"/>
		<path class="st0" d="M111.4,65v-0.1H110h-10c-4.4,0-8-3.6-8-8s3.6-8,8-8h7c4.4,0,8-3.6,8-8s-3.6-8-8-8h-0.4H86h-4
			c-4.4,0-8-3.6-8-8s3.6-8,8-8h4c4.4,0,8-3.6,8-8s-3.6-8-8-8H58c-0.2,0-1.6,0-2,0C25.1,0.9,0,26,0,56.9s25.1,56,56,56
			c1.2,0,4.5,0,5,0h34c4.4,0,8-3.6,8-8c0-4.3-3.5-7.9-7.8-8l0,0H95h-7c-4.4,0-8-3.6-8-8s3.6-8,8-8h18.6h3.4c4.4,0,8-3.6,8-8
			C118,68.9,115.2,65.6,111.4,65z M70,64.8c-4.4,0-8-3.6-8-8s3.6-8,8-8s8,3.6,8,8S74.4,64.8,70,64.8z"/>
	</g>
</g>
</svg>
